<svg width="480" height="480" fill="none" xmlns="http://www.w3.org/2000/svg"><path d="M292.294 85v309.933H105.336C82.515 394.933 64 376.418 64 353.597V85h228.294z" fill="#4285F4"/><path d="M207.821 127.497a4.565 4.565 0 00-2.711-3.995l-17.406-7.62-8.013-3.544a3.946 3.946 0 00-3.197 0l-8.013 3.544-17.555 7.58a4.567 4.567 0 00-2.711 3.945c-.298 6.018-.427 20.046.576 25.433 4.19 22.399 29.301 39.16 29.301 39.16s26.075-16.912 29.302-39.16c.784-5.407.665-19.315.427-25.343z" fill="#EFF7CF"/><path fill-rule="evenodd" clip-rule="evenodd" d="M196.559 137.443a1.507 1.507 0 01-.002 2.133l-22.818 22.78a1.508 1.508 0 01-2.13.002l-9.165-9.127a1.51 1.51 0 012.129-2.138l8.099 8.065 21.754-21.717a1.507 1.507 0 012.133.002z" fill="#4285F4"/><path fill-rule="evenodd" clip-rule="evenodd" d="M93.624 347.224h56.32v13.779h-56.32v-13.779z" fill="#EFF7CF"/><path d="M187.491 256.113l-6.89 7.061-.172.603-1.464 6.201h-86.46v-13.865h94.986z" fill="#EFF7CF"/><path d="M230.807 256.113v13.865h-51.842l1.464-6.201.172-.603 6.89-7.061h43.316z" fill="#D7DDBC"/><path d="M292.294 149.759v157.679l-34.188 33.5-100.842 23.596 21.701-94.556h51.842v-13.865H187.49l19.549-19.807h35.91l2.412-6.114.258-.689 12.056-7.061h-37.03l71.649-72.683z" fill="#1769E0"/><path d="M257.675 222.441l-12.056 7.062-.258.689-2.412 6.114h-35.91l12.228-12.401 1.378-1.464h37.03z" fill="#D7DDBC"/><path d="M220.645 222.441l-1.378 1.464-12.228 12.401H92.849v-13.865h127.796z" fill="#EFF7CF"/><path d="M408.081 177.689l-64.059-64.059-155.52 155.52 64.059 64.059 155.52-155.52z" fill="#F86734"/><path d="M176.726 318.892l11.884-49.776 63.985 64.071-49.69 11.884-26.179-26.179z" fill="#D7EFFE"/><path d="M168.545 353.252l8.181-34.36 26.179 26.179-34.36 8.181z" fill="#073042"/><path fill-rule="evenodd" clip-rule="evenodd" d="M398.334 167.874L242.808 323.4l-6.09-6.089 155.527-155.526 6.089 6.089zM379.13 148.757l-155.44 155.44-6.089-6.09 155.439-155.44 6.09 6.09zM360.012 129.553L204.486 285.079l-6.089-6.089 155.526-155.526 6.089 6.089z" fill="#4285F4"/><path d="M344.05 113.677l64.07 64.07c10.507-10.506 10.507-27.557 0-38.063l-45.039-45.039-19.031 19.032z" fill="#073042"/></svg>