<svg xmlns="http://www.w3.org/2000/svg" width="240" height="241" fill="none"><path fill="#202124" fill-rule="evenodd" d="M156.854 77.43c1.554-1.797 4.296-2.016 6.125-.489 4.574 3.82 14.15 14.593 16.719 28.251.437 2.32-1.123 4.548-3.483 4.977-2.36.428-4.626-1.104-5.063-3.424-2.082-11.07-10.139-20.237-13.801-23.295a4.221 4.221 0 0 1-.497-6.02ZM176.632 131.318c2.335.544 3.779 2.845 3.226 5.141-1.385 5.74-6.8 19.018-18.012 27.472-1.905 1.436-4.632 1.083-6.093-.789a4.222 4.222 0 0 1 .803-5.988c9.089-6.853 13.737-18.071 14.845-22.666.554-2.295 2.896-3.715 5.231-3.17Z" clip-rule="evenodd"/><rect width="53.14" height="200" x="93.986" y="20.852" fill="#34A853" rx="26.57"/><circle cx="120.072" cy="119.403" r="55.072" fill="#4285F4"/><ellipse cx="120.556" cy="120.369" fill="#174EA6" rx="44.928" ry="44.444"/><rect width="8" height="32" x="97.095" y="105.725" fill="#CEEAD6" rx="4" transform="rotate(-45 97.095 105.725)"/><path stroke="#E6F4EA" stroke-linecap="round" stroke-width="2.222" d="m120.278 123.479 22.627-22.627"/><circle cx="120" cy="142.574" r="6" fill="#4285F4"/><path fill="#AECBFA" d="M43.293 60.798c.736-2.486 4.258-2.486 4.994 0l3.1 10.46a5.21 5.21 0 0 0 3.514 3.515l10.46 3.099c2.486.736 2.486 4.258 0 4.995L54.9 85.965a5.21 5.21 0 0 0-3.515 3.515l-3.099 10.46c-.736 2.486-4.258 2.486-4.994 0l-3.1-10.46a5.21 5.21 0 0 0-3.514-3.515l-10.46-3.099c-2.486-.736-2.486-4.258 0-4.994l10.46-3.1a5.21 5.21 0 0 0 3.515-3.514l3.099-10.46ZM55.252 161.186c.42-1.421 2.433-1.421 2.854 0l1.77 5.977a2.976 2.976 0 0 0 2.01 2.008l5.976 1.771c1.42.421 1.42 2.433 0 2.854l-5.977 1.771a2.976 2.976 0 0 0-2.008 2.009l-1.771 5.976c-.421 1.421-2.433 1.421-2.854 0l-1.771-5.976a2.976 2.976 0 0 0-2.009-2.009l-5.977-1.771c-1.42-.421-1.42-2.433 0-2.854l5.977-1.771a2.976 2.976 0 0 0 2.009-2.008l1.77-5.977ZM198.849 106.873c.526-1.776 3.041-1.776 3.567 0l2.214 7.471a3.72 3.72 0 0 0 2.51 2.511l7.471 2.213c1.776.526 1.776 3.042 0 3.568l-7.471 2.213a3.72 3.72 0 0 0-2.51 2.511l-2.214 7.471c-.526 1.776-3.041 1.776-3.567 0l-2.214-7.471a3.722 3.722 0 0 0-2.511-2.511l-7.471-2.213c-1.776-.526-1.776-3.042 0-3.568l7.471-2.213a3.722 3.722 0 0 0 2.511-2.511l2.214-7.471Z"/></svg>