<svg xmlns="http://www.w3.org/2000/svg" width="32" height="32" fill="none"><path fill="#3DDC84" fill-rule="evenodd" d="M15.419 30.518H8V1.667h7.419v28.85Z" clip-rule="evenodd"/><path fill="#4285F4" fill-rule="evenodd" d="M8 7.931h2.967V6.777H8v1.154Zm0 4.452h2.967v-1.154H8v1.154Zm0 4.286h2.967v-1.154H8v1.154Zm2.967 4.451H8v-1.154h2.967v1.154Z" clip-rule="evenodd"/><path fill="#4285F4" d="m18.722 12.483 6.007 3.991-9.314 14.018a7.212 7.212 0 0 1-2.016-9.998l5.323-8.011Z"/><path fill="#EFF7CF" d="m25.717 8.47-6.995 4.013 6.007 3.99.988-8.002Z"/><path fill="#4285F4" d="m22.22 10.477 3.003 1.995.494-4.001-3.498 2.006Z"/></svg>