<svg xmlns="http://www.w3.org/2000/svg" width="32" height="32" fill="none"><mask id="a" width="28" height="28" x="2" y="2" maskUnits="userSpaceOnUse" style="mask-type:alpha"><path fill="#4285F4" d="M16 29.333c7.364 0 13.333-5.97 13.333-13.333 0-7.364-5.97-13.333-13.333-13.333C8.636 2.667 2.667 8.637 2.667 16c0 7.364 5.97 13.333 13.333 13.333Z"/></mask><g mask="url(#a)"><path fill="#1769E0" d="M16 29.333c7.364 0 13.333-5.97 13.333-13.333 0-7.364-5.97-13.333-13.333-13.333C8.636 2.667 2.667 8.637 2.667 16c0 7.364 5.97 13.333 13.333 13.333Z"/><path stroke="#D7EFFE" stroke-linecap="round" stroke-linejoin="round" stroke-miterlimit="10" d="M23.66 3.864s-9.593 3.781-10.575 8.672c-1.242 6.18 14.938 6.778 17.716-6.38"/><path stroke="#D7EFFE" stroke-linecap="round" stroke-linejoin="round" stroke-miterlimit="10" d="M32.98 19.13s-12.257-2.523-15.434 2.315c-1.865 2.839-1.55 10.266 5.363 12.87M10.817-2.484S10.495 1.3 10.43 8.561c-.038 4.354-2.004 4.896-3.871 7.558-1.411 2.013-1.672 3.838-.456 5.807 1.696 2.746 7.643 4.491 7.125 10.544"/><path stroke="#D7EFFE" stroke-linecap="round" stroke-linejoin="round" stroke-miterlimit="10" d="M11.87 22.475c.678 0 1.229-.548 1.229-1.224 0-.677-.55-1.225-1.23-1.225-.678 0-1.229.548-1.229 1.225 0 .676.55 1.224 1.23 1.224Z"/></g></svg>