<svg xmlns="http://www.w3.org/2000/svg" width="32" height="32" fill="none"><path fill="#4285F4" d="m3.117 21.773 13.514-6.566 12.252 6.216L16 28.383l-12.883-6.61Z"/><path fill="#4285F4" fill-rule="evenodd" d="M16.434 14.802a.45.45 0 0 1 .4.004l12.253 6.216a.45.45 0 0 1 .01.798l-12.883 6.96a.45.45 0 0 1-.42.004l-12.883-6.61a.45.45 0 0 1 .01-.807l13.513-6.565ZM4.125 21.784l11.87 6.09 11.917-6.438-11.286-5.726-12.5 6.073Z" clip-rule="evenodd"/><path fill="#1769E0" d="m3.117 16.12 13.514-6.555 12.252 6.205L16 22.73 3.117 16.12Z"/><path fill="#1769E0" fill-rule="evenodd" d="M16.434 9.16a.45.45 0 0 1 .4.003l12.252 6.205a.45.45 0 0 1 .011.799l-12.883 6.959a.45.45 0 0 1-.42.005L2.911 16.52a.45.45 0 0 1 .01-.807L16.434 9.16ZM4.126 16.13l11.869 6.09 11.916-6.437-11.285-5.715-12.5 6.063Z" clip-rule="evenodd"/><path fill="#4285F4" d="M3.117 10.005 16.631 3.45l12.252 6.217L16 16.615l-12.883-6.61Z"/><path fill="#4285F4" fill-rule="evenodd" d="M16.434 3.045a.45.45 0 0 1 .4.004l12.253 6.216a.45.45 0 0 1 .01.798l-12.883 6.948a.45.45 0 0 1-.42.005l-12.882-6.61a.45.45 0 0 1 .009-.807l13.513-6.554Zm-12.308 6.97 11.869 6.09L27.91 9.68 16.626 3.953l-12.5 6.063Z" clip-rule="evenodd"/></svg>