<svg xmlns="http://www.w3.org/2000/svg" width="32" height="32" fill="none"><path fill="#F86734" d="M7.486 19.927c-1.297 1.296-1.725 6.457-1.725 6.457s5.148-.466 6.445-1.762a3.312 3.312 0 0 0-.026-4.708c-1.284-1.309-3.385-1.296-4.694.013Z"/><path fill="#1769E0" d="m18.65 6.422 7.161-1.02a.801.801 0 0 1 .906.907l-1.007 7.174-7.06-7.061ZM17.076 9.631l-4.405.026a.646.646 0 0 0-.465.188l-3.361 3.36a.664.664 0 0 0 .478 1.134h3.071l4.695-4.695-.013-.013ZM22.488 15.043l-.025 4.406c0 .176-.063.34-.189.465l-3.36 3.36a.664.664 0 0 1-1.133-.477l.013-3.059 4.694-4.694Z"/><path fill="#4285F4" d="m13.313 24.672-5.852-5.853a.843.843 0 0 1 0-1.208L18.649 6.422l7.061 7.06L14.534 24.66a.87.87 0 0 1-1.22.013Z"/></svg>