<svg xmlns="http://www.w3.org/2000/svg" width="32" height="32" fill="none"><path fill="#1769E0" d="M11.537 8.34a10.821 10.821 0 0 1-7.197 7.197c-.453.136-.453.79 0 .926a10.82 10.82 0 0 1 7.197 7.197c.136.453.79.453.926 0a10.821 10.821 0 0 1 7.197-7.197c.453-.137.453-.79 0-.926a10.821 10.821 0 0 1-7.197-7.197c-.136-.453-.79-.453-.926 0ZM23.816 18.822a7.622 7.622 0 0 1-3.713 5.007.195.195 0 0 0 0 .342 7.63 7.63 0 0 1 3.713 5.008.188.188 0 0 0 .37 0 7.622 7.622 0 0 1 3.712-5.008.195.195 0 0 0 0-.342 7.63 7.63 0 0 1-3.712-5.008.188.188 0 0 0-.37 0ZM23.816 2.821a7.622 7.622 0 0 1-3.713 5.008.195.195 0 0 0 0 .342 7.63 7.63 0 0 1 3.713 5.008.188.188 0 0 0 .37 0 7.622 7.622 0 0 1 3.712-5.008.195.195 0 0 0 0-.342 7.63 7.63 0 0 1-3.712-5.008.188.188 0 0 0-.37 0Z"/></svg>