<svg xmlns="http://www.w3.org/2000/svg" width="32" height="32" fill="none"><rect width="32" height="32" fill="#fff" rx="8"/><path fill="#EA5426" fill-rule="evenodd" d="M18.877 3c.304 0 .57.21.646.514l3.74 14.924 1.048-3.714h5.023c.368 0 .666.307.666.685a.676.676 0 0 1-.666.685h-4.023l-1.447 5.127a.668.668 0 0 1-.649.494.67.67 0 0 1-.634-.514L18.884 6.45l-5.176 21.032a.67.67 0 0 1-.645.517.67.67 0 0 1-.645-.517L8.679 12.307l-1.046 3.787H2.666A.676.676 0 0 1 2 15.41c0-.378.298-.685.666-.685h3.961l1.449-5.243a.668.668 0 0 1 .65-.498.67.67 0 0 1 .635.517l3.702 15.026 5.17-21.01A.67.67 0 0 1 18.877 3Z" clip-rule="evenodd"/></svg>